<svg t="1752744901323" class="icon" viewBox="0 0 1024 1024" version="1.1" xmlns="http://www.w3.org/2000/svg"
     p-id="37255" width="200" height="200">
    <path d="M510.694465 126.713664a398.213689 398.213689 0 0 0-125.894505 775.9996c19.915804 3.686216 27.237038-8.60117 27.237038-19.147842 0-9.471526-0.358382-40.957952-0.511974-74.133894-110.842458 24.113994-134.188491-46.99925-134.188491-46.99925-18.123894-46.077696-44.183391-58.262687-44.183391-58.262686-36.145393-24.677166 2.713464-24.216389 2.713465-24.21639 39.985201 2.815859 61.027349 40.957952 61.027348 40.957952 35.531023 60.873756 93.179341 43.261837 115.859807 33.073547 3.583821-25.59872 13.925704-43.261837 25.291536-53.245338-88.417979-10.239488-181.39253-44.234588-181.392531-196.751762a154.0019 154.0019 0 0 1 40.957952-106.900255c-4.146993-10.239488-17.765512-50.531873 3.839808-105.364332 0 0 33.483126-10.700265 109.562522 40.957952a377.273936 377.273936 0 0 1 199.41403 0c76.028199-51.504625 109.357732-40.957952 109.357732-40.957952 21.707715 54.832458 8.037998 95.329634 3.942203 105.364332a153.59232 153.59232 0 0 1 40.957952 106.900255c0 152.926754-93.128144 186.563472-181.80211 196.444577 14.284086 12.389781 26.981051 36.60617 26.981051 73.775512 0 53.245338-0.460777 96.148793-0.460777 109.255337 0 10.59787 7.167642 23.038848 27.339433 19.147842A398.264887 398.264887 0 0 0 510.694465 126.713664z m0 0"
          fill="#793989" p-id="37256"></path>
</svg>
