<svg t="1756282923072" class="icon" viewBox="0 0 1024 1024" version="1.1" xmlns="http://www.w3.org/2000/svg" p-id="17813" width="200" height="200"><path d="M990.948267 266.752a20.394667 20.394667 0 0 0-39.381334 7.296 32.853333 32.853333 0 0 0 1.109334 7.296c91.733333 243.626667-32.042667 515.285333-275.626667 606.976a465.066667 465.066667 0 0 1-103.509333 25.898667v-219.946667c14.08-2.816 27.562667-6.741333 41.045333-11.264v185.088c232.32-56.832 375.210667-290.858667 318.421333-523.178667a432.938667 432.938667 0 0 0-211.541333-276.778666 20.138667 20.138667 0 0 0-27.562667 7.893333 20.138667 20.138667 0 0 0 7.893334 27.562667c189.568 104.618667 258.176 343.722667 153.6 533.290666a389.546667 389.546667 0 0 1-199.722667 174.933334v-163.669334a62.805333 62.805333 0 0 0 43.861333-59.648c0-22.485333-11.264-42.752-30.933333-54.016 14.634667-141.184 79.317333-104.064 79.317333-149.034666v-26.453334c0-67.498667-156.373333-287.445333-229.546666-292.522666h-13.482667c-73.130667 5.077333-229.504 225.024-229.504 292.522666v26.453334c0 44.970667 64.128 7.850667 79.317333 149.034666a62.336 62.336 0 0 0-30.933333 54.016c0 27.562667 18.005333 51.2 43.861333 59.648v163.669334C166.8416 732.501333 67.854933 504.746667 147.1296 303.36a394.24 394.24 0 0 1 174.933333-199.68 20.437333 20.437333 0 0 0 7.893334-28.16 20.778667 20.778667 0 0 0-18.005334-10.112 18.944 18.944 0 0 0-9.557333 2.773333 432.725333 432.725333 0 0 0-169.898667 588.416 432.938667 432.938667 0 0 0 276.778667 211.541334V683.52c13.482667 4.522667 27.008 8.448 41.045333 11.264v219.946667C192.142933 880.469333 10.980267 643.626667 45.326933 385.450667a465.066667 465.066667 0 0 1 25.856-103.509334 20.864 20.864 0 0 0-11.818666-26.453333 21.077333 21.077333 0 0 0-26.453334 11.818667c-99.541333 264.96 34.346667 560.256 299.306667 659.285333 51.2 19.114667 104.618667 29.824 159.146667 32.042667v-259.84c7.338667 0.512 20.864 0.512 20.864 0.512s13.482667 0 20.821333-0.554667v259.328c282.922667-11.818667 502.314667-250.325333 490.496-533.290667a531.541333 531.541333 0 0 0-32.597333-158.037333z m-384.810667 291.925333a42.453333 42.453333 0 0 1 59.648 0 42.453333 42.453333 0 0 1 0 59.648 42.453333 42.453333 0 0 1-59.648 0 42.154667 42.154667 0 0 1 0-59.648z m-189.013333 59.648a41.770667 41.770667 0 0 1-59.050667 0 42.453333 42.453333 0 0 1 0-59.648 42.453333 42.453333 0 0 1 59.648 0 41.941333 41.941333 0 0 1-0.554667 59.648z" fill="#179287" p-id="17814"></path></svg>
