<svg t="1752744704667" class="icon" viewBox="0 0 1024 1024" version="1.1" xmlns="http://www.w3.org/2000/svg" p-id="8920"
     width="200" height="200">
    <path d="M433.152 223.437c0-4.403-0.102-4.199 16.384-19.661 6.349-5.94 15.258-14.438 19.866-18.944 4.505-4.506 15.872-15.36 25.19-24.064s21.094-19.866 26.112-24.678c5.12-4.813 12.698-11.981 16.896-15.77s11.674-10.957 16.486-15.77 16.794-16.384 26.624-25.702c9.728-9.318 18.944-18.125 20.378-19.558 2.048-2.048 3.072-2.56 4.403-1.844 2.663 1.536 6.759-0.102 8.704-3.379 0.922-1.638 3.175-3.891 5.018-4.915 1.843-1.126 3.379-2.56 3.379-3.38 0-0.716 1.946-3.174 4.403-5.529 2.355-2.253 5.427-5.325 6.759-6.758 1.33-1.536 2.97-2.765 3.788-2.765s1.434-0.41 1.434-1.024c0-0.512 1.536-1.74 3.277-2.662 3.072-1.536 5.427-1.639 27.443-0.512 13.21 0.716 27.34 1.843 31.232 2.662 7.168 1.331 14.438 2.048 38.912 3.686 38.298 2.458 44.954 2.97 55.808 3.994a1710.28 1710.28 0 0 0 23.757 2.048c6.553 0.41 12.493 1.126 13.21 1.638 0.716 0.41 8.908 1.127 18.227 1.639s18.022 1.024 19.353 1.126c2.56 0.205 6.759 7.885 7.987 14.848 0.41 2.048 1.946 6.144 3.584 8.909 1.536 2.867 3.072 6.758 3.482 8.704s1.843 5.632 3.174 8.192 3.687 8.192 5.428 12.493l2.97 7.987h-2.766c-1.433 0-3.686 0.717-4.915 1.536-1.126 0.82-4.3 2.253-7.065 3.174-3.687 1.23-6.759 3.38-11.776 8.5-6.247 6.553-7.168 7.065-13.824 8.601-3.892 0.922-9.114 2.765-11.674 4.199s-5.94 3.379-7.68 4.3c-1.638 0.922-3.994 2.458-5.12 3.482-1.126 0.922-5.12 2.56-9.011 3.584-3.789 0.922-7.27 2.355-7.68 3.072-0.82 1.434-18.74 10.24-23.143 11.366-1.638 0.41-4.198 1.332-5.632 2.048-1.433 0.82-3.174 1.434-3.89 1.434s-3.687 2.458-6.657 5.53c-5.53 5.632-12.083 8.806-20.787 10.24-3.891 0.716-8.909 3.686-17.306 10.24-2.15 1.638-6.348 3.584-9.728 4.3-3.276 0.82-7.68 2.15-9.83 3.072-3.891 1.639-10.752 7.783-10.752 9.626 0 0.512-1.229 1.331-2.765 1.638-4.096 1.024-8.397 3.277-11.469 6.144-1.433 1.332-3.174 2.458-3.788 2.458-2.356 0-12.288 4.608-14.336 6.554-6.452 6.45-5.428 6.246-28.57 6.86-11.776 0.41-64.717 0.717-117.453 0.82l-96.051 0.102v-3.891z"
          fill="#DFE95A" p-id="8921"></path>
    <path d="M689.152 998.298c-2.56-0.512-5.94-0.615-7.475-0.308-3.584 0.717-13.005-2.56-13.005-4.505 0-1.536 3.072-1.434 17.92 0.41l5.222 0.614 1.127-5.94c0.614-3.379 1.843-9.215 2.662-13.209 0.82-3.891 2.253-11.06 3.175-15.872 4.403-24.269 7.884-42.189 9.318-48.128 0.82-3.686 2.253-10.24 3.174-14.54 1.332-6.657 1.946-7.988 3.584-7.988 1.024 0 1.946 0.307 1.946 0.614 0 0.41-1.638 8.807-3.584 18.74-3.277 16.793-4.813 24.166-8.294 39.526-1.434 6.144-2.458 11.98-5.018 28.16-0.717 4.813-1.843 10.342-2.458 12.288s-1.33 5.325-1.638 7.475c-0.307 2.048-0.922 3.789-1.331 3.687s-2.765-0.512-5.325-1.024z m-33.28-4.506c-0.512-0.205-4.813-1.434-9.42-2.662-5.735-1.434-8.5-2.663-8.5-3.687 0-1.229 1.536-1.331 9.011-0.717 9.933 0.717 16.487 2.97 16.589 5.837 0 1.331-0.82 1.741-3.277 1.639-1.843 0-3.789-0.205-4.403-0.41z m-36.864-4.608c-0.307-0.512 0.102-1.024 0.922-1.024s1.843 0.512 2.15 1.024c0.307 0.614-0.102 1.024-0.922 1.024s-1.843-0.41-2.15-1.024z m3.584-1.74c-3.072-0.82-11.366-2.356-18.33-3.38-14.643-2.253-15.462-2.458-15.462-4.608 0-2.048 6.963-2.048 13.722 0 2.764 0.82 6.656 1.536 8.704 1.536 3.174 0 9.625 1.229 20.377 3.789 1.331 0.307 2.253 1.331 2.253 2.457 0 2.356-2.97 2.458-11.264 0.205z m-44.749-7.476c-1.229-0.512-5.12-1.229-8.704-1.638-3.584-0.308-11.469-1.741-17.613-3.072s-11.366-2.458-11.57-2.458c-0.103 0-0.308-0.717-0.308-1.536 0-1.126 1.126-1.536 3.789-1.536 5.734 0 20.48 2.048 27.443 3.789 12.39 3.072 13.824 3.584 13.824 5.632s-2.97 2.355-6.86 0.819z m-59.801-10.24c-3.687-0.512-8.704-1.536-11.264-2.355-2.97-1.024-8.397-1.536-15.463-1.536-9.625 0-11.264-0.205-13.721-2.15-1.536-1.127-3.38-2.151-4.096-2.151-0.82 0-1.434-1.024-1.434-2.15 0-2.048 0.41-2.15 5.427-1.639 2.867 0.41 10.445 1.639 16.589 2.765 6.246 1.126 16.896 3.072 23.86 4.3 10.546 1.844 12.492 2.458 12.492 4.097 0 2.048-1.024 2.15-12.39 0.819zM466.432 960c-0.512-0.205-2.253-0.614-3.789-0.922-4.608-1.024-3.584-3.686 1.229-3.686 3.686 0 4.096 0.307 4.096 2.56 0 1.434-0.102 2.56-0.205 2.458-0.205 0-0.717-0.205-1.331-0.41z m-25.088-4.71c-1.434-0.615-4.506-0.82-6.86-0.512-2.56 0.307-4.404 0.204-4.404-0.41 0-0.512-1.126-1.229-2.56-1.638-1.434-0.308-2.56-1.23-2.56-2.048 0-2.048 8.5-1.844 16.896 0.204 5.222 1.332 6.656 2.048 6.656 3.584 0 2.15-2.97 2.458-7.168 0.82z m-30.925-5.735c-3.686-0.921-2.048-3.379 2.253-3.379 3.38 0 4.096 0.307 4.096 2.048 0 2.048-2.048 2.458-6.349 1.331z m-30.003-3.993c-6.144-1.332-16.691-3.072-23.347-3.994-6.656-0.82-13.005-1.946-14.029-2.56-1.024-0.512-4.3-1.024-7.168-1.024-5.018 0-11.264-2.97-11.264-5.325 0-1.126 7.475-1.024 10.445 0.103 3.379 1.33 18.841 4.096 32.051 5.734 6.246 0.82 15.667 2.355 20.992 3.482s10.957 2.15 12.595 2.15c2.048 0 2.765 0.512 2.765 2.048 0 1.843-0.614 2.048-5.837 1.946-3.277-0.103-10.957-1.23-17.203-2.56z m-86.733-13.312c2.867-1.332 0.82-2.56-4.096-2.356-3.789 0.103-6.656-0.41-9.523-1.843-2.253-1.126-6.656-2.355-9.728-2.765-8.397-1.024-10.24-1.74-10.24-3.379 0-1.331 1.024-1.433 5.94-0.921 3.174 0.307 9.522 1.024 14.028 1.536s9.83 1.433 11.776 1.945c1.946 0.615 6.246 1.639 9.523 2.253 4.71 0.922 5.837 1.536 5.837 3.174s-0.717 1.946-4.3 1.844c-2.458-0.103-5.735 0.204-7.476 0.512-1.638 0.307-2.458 0.307-1.74 0zM251.7 922.93c-1.024-0.205-1.843-1.126-1.843-1.945 0-1.024 1.331-1.434 4.608-1.434 3.891 0 4.608 0.307 4.608 2.048 0 1.536-0.614 2.048-2.765 1.946-1.638-0.103-3.686-0.308-4.608-0.615z m305.46-2.355c-4.609-1.024-6.964-2.765-17.101-13.005-2.458-2.457-4.813-4.403-5.428-4.403-0.512 0-1.228-0.82-1.638-1.946-0.82-2.662-8.806-10.342-10.752-10.342-2.355 0-8.909-6.246-9.523-9.216-0.615-2.56-7.987-11.264-9.626-11.264-1.229 0-6.758-5.325-8.192-7.987-0.717-1.229-1.331-3.072-1.331-4.096s-1.126-2.97-2.56-4.301-2.56-2.867-2.56-3.584c0-0.614-1.331-2.253-2.97-3.686-2.048-1.844-3.379-4.404-4.3-8.397-0.82-3.175-1.741-5.837-2.15-5.837-0.513 0-0.82-1.843-0.82-4.096s-0.41-4.096-1.024-4.096c-0.512 0-1.024-1.843-1.024-4.096v-3.994l5.94-0.307 5.836-0.307 0.307-3.686c0.307-3.38 0.717-3.892 4.71-5.428 2.356-0.921 8.295-1.945 13.005-2.252 11.264-0.82 15.258-2.048 15.258-4.71 0-2.049 0.102-2.049 94.208-1.742 51.814 0.205 94.208 0.717 94.208 1.23 0 0.409 1.638 0.716 3.584 0.716 2.355 0 3.584 0.512 3.584 1.434 0 2.867 17.613 2.56 19.456-0.41 1.024-1.74 7.68-2.97 15.565-3.072 5.325 0 7.065 0.41 7.782 1.638 0.615 1.127 1.127 1.332 1.639 0.512 0.41-0.614 3.276-1.126 6.348-1.126h5.53v3.584c0 4.813-2.56 7.066-10.445 9.523-7.065 2.253-17.613 7.475-20.787 10.445-1.126 1.024-3.891 2.662-6.042 3.789-5.427 2.56-7.475 5.632-9.216 14.131-0.819 3.994-2.252 11.06-3.174 15.872-4.915 24.269-5.734 27.648-7.373 27.648-1.433 0-1.536-1.024-0.921-7.373 0.307-4.096 1.33-9.523 2.048-12.083 0.819-2.56 2.048-8.704 2.764-13.824 0.615-5.018 1.844-10.957 2.56-13.21 0.82-2.15 1.434-4.096 1.434-4.3s-1.536 0.512-3.277 1.638c-1.843 1.126-5.12 2.56-7.27 3.174-2.15 0.512-4.71 1.844-5.735 2.868-2.457 2.457-22.528 14.438-24.268 14.438-0.717 0-3.277 1.843-5.632 4.096-2.458 2.253-4.916 4.096-5.53 4.096-1.536 0-9.011 4.096-10.24 5.53-0.512 0.716-3.277 2.457-6.144 3.89-14.643 7.169-19.66 10.138-21.709 12.494-1.536 1.74-3.379 2.662-5.325 2.662-2.048 0-4.608 1.331-7.782 4.096-2.56 2.253-5.325 4.096-6.042 4.096s-2.97 1.843-5.017 4.096c-2.663 2.97-4.403 4.096-6.656 4.096-1.639 0-4.813 1.229-6.963 2.765-2.15 1.433-6.452 3.789-9.524 5.12-2.97 1.331-6.144 3.174-6.963 3.993-4.608 4.506-13.721 6.35-22.733 4.506z m-318.567-0.512c-0.82-0.205-5.94-0.922-11.264-1.536-5.325-0.717-11.571-1.843-13.824-2.56s-8.192-1.638-13.312-2.048c-5.018-0.307-11.162-1.126-13.517-1.638s-9.318-1.639-15.36-2.458c-7.782-1.126-11.571-2.15-12.902-3.482-1.843-1.843-5.94-18.739-7.885-32.87-2.56-18.74-2.56-17.408-0.102-17.408 1.536 0 2.15 0.614 2.15 2.355 0 1.331 0.82 6.656 1.946 11.981a774.286 774.286 0 0 1 3.174 17.818c1.638 11.059 2.458 12.902 5.53 12.902 1.433 0 2.867 0.512 3.174 1.024 0.307 0.614 1.638 1.024 2.867 1.024s4.199 0.717 6.554 1.536 8.601 1.946 13.824 2.56 11.366 1.638 13.619 2.253 7.782 1.74 12.288 2.457 10.035 1.741 12.288 2.356 6.042 1.126 8.5 1.126c3.89 0 4.3 0.205 4.3 2.56 0 1.434-0.102 2.458-0.205 2.458-0.205-0.103-1.024-0.308-1.843-0.41z m-92.058-74.24c-1.433-6.86-1.433-7.168 0.82-7.168 1.843 0 3.174 3.994 3.174 10.035 0 4.506-2.867 2.355-3.994-2.867z m-4.505-24.78c-0.922-4.097-2.355-12.084-3.277-17.716-0.82-5.632-2.253-13.926-2.97-18.432-4.505-24.986-4.3-23.04-1.843-23.04 2.355 0 4.71 8.602 6.861 25.6 0.922 7.066 2.56 18.022 3.686 24.474 2.356 13.926 2.458 16.486 0.512 16.486-0.921 0-1.945-2.458-2.97-7.373z m655.462-68.097c-0.205-20.173-0.512-146.33-0.614-280.269-0.205-134.041-0.512-244.019-0.82-244.53-0.307-0.41-39.014-0.82-86.015-0.82-75.264 0-85.402-0.205-85.402-1.536 0-0.82 0.102-1.638 0.307-1.74 0.103 0 9.216-0.41 20.173-0.718 21.504-0.614 20.582-0.41 27.034-6.86 2.048-1.946 11.98-6.554 14.336-6.554 0.614 0 2.355-1.126 3.788-2.458 3.277-3.072 9.012-6.144 11.674-6.348 1.024-0.103 2.15-0.717 2.355-1.434 0.922-2.56 7.168-8.09 10.957-9.626 2.15-0.921 6.554-2.252 9.83-3.072 3.38-0.716 7.578-2.662 9.728-4.3 8.397-6.554 13.415-9.524 17.306-10.24 8.704-1.434 15.258-4.608 20.787-10.24 2.97-3.072 5.94-5.53 6.656-5.53s2.458-0.614 3.891-1.434c1.434-0.716 3.994-1.638 5.632-2.048 4.404-1.126 22.324-9.932 23.143-11.366 0.41-0.717 3.891-2.15 7.68-3.072 3.891-1.024 7.885-2.662 9.011-3.584 1.126-1.024 3.482-2.56 5.12-3.482 1.74-0.921 5.12-2.867 7.68-4.3s7.782-3.277 11.674-4.199c6.656-1.536 7.577-2.048 13.824-8.601 5.017-5.018 8.09-7.27 11.673-8.5 2.663-0.921 5.94-2.252 7.168-3.072s3.789-1.638 5.735-1.843c3.89-0.307 4.812 0.922 10.444 14.541 1.741 4.198 3.79 9.114 4.506 10.752 0.717 1.74 2.355 5.53 3.584 8.602 1.126 2.97 3.482 8.192 5.018 11.366 1.638 3.277 3.686 8.5 4.608 11.776 0.921 3.174 3.276 9.011 5.12 13.107 1.945 4.096 3.686 8.295 3.993 9.421 1.331 4.506 5.735 15.77 8.704 22.22 1.843 3.79 3.277 7.271 3.277 7.68 0 1.127 4.3 11.367 6.554 15.566 1.843 3.379 2.764 5.939 8.704 22.63 1.74 4.813 3.993 10.342 5.12 12.288 1.024 1.946 2.457 5.632 3.174 8.192 0.614 2.56 2.253 6.656 3.482 9.216 1.33 2.56 3.379 7.885 4.71 11.776 1.229 3.994 2.867 8.294 3.584 9.728 2.56 5.018 6.451 14.029 7.987 18.534 2.867 8.295 9.728 26.01 11.367 29.082 0.921 1.74 1.638 4.3 1.638 5.734 0 3.175-7.475 13.927-11.571 16.487-1.434 1.024-2.867 2.662-3.277 3.789-0.307 1.024-1.536 2.15-2.765 2.457-1.74 0.512-1.945 1.127-1.433 3.277 0.614 2.355 0.41 2.662-1.434 2.048-1.229-0.41-2.048-0.205-2.048 0.614 0 0.615-2.662 3.584-5.837 6.452a418.67 418.67 0 0 0-8.601 7.782c-5.837 5.632-6.042 5.734-6.042 2.15 0-2.15 0.512-3.174 1.536-3.174 0.82 0 1.536-0.82 1.536-1.843 0-2.355 6.451-9.83 17.92-20.685 5.018-4.813 11.162-11.06 13.62-14.029 3.788-4.505 4.3-5.632 3.276-7.373-0.614-1.228-2.867-6.45-5.018-11.57-2.252-5.223-6.348-14.849-9.216-21.3-2.867-6.349-5.222-12.288-5.222-13.005 0-2.662-1.536-1.126-3.891 3.584-1.229 2.663-2.253 5.53-2.253 6.349 0 2.15-2.048 4.096-4.3 4.096-1.025 0-1.844 0.41-1.844 0.922 0 0.921-2.867 2.15-10.752 4.403-4.813 1.331-5.12 1.638-6.451 6.246-0.717 2.663-1.741 4.813-2.15 4.813-0.513 0-1.434 1.331-2.049 2.867-1.126 2.765-12.492 14.541-14.028 14.541-0.308 0-2.663 1.74-5.018 3.891-2.355 2.048-5.94 5.018-7.885 6.554-1.945 1.433-4.915 5.427-6.553 8.704-2.458 4.915-3.994 6.451-8.602 9.216-8.704 5.017-10.957 7.168-11.571 10.752-0.922 5.632-5.223 16.896-7.27 19.149-1.127 1.228-2.765 2.15-3.79 2.15-2.457 0-6.041 7.373-6.041 12.186 0 2.048 1.331 7.168 2.97 11.366 3.276 8.602 12.185 28.774 13.004 29.594 0.205 0.307 5.632-4.916 11.981-11.47s12.288-11.98 13.312-11.98 1.741-0.82 1.741-2.048c0-1.331 0.717-2.048 2.048-2.048 1.229 0 2.048-0.717 2.048-1.74s2.253-4.097 5.018-6.964c6.246-6.451 7.782-7.68 9.83-7.68 0.82 0 1.536-0.717 1.536-1.638 0-1.946 9.114-12.698 10.854-12.698 0.615 0 1.434-0.922 1.741-2.048 0.307-1.434 1.434-2.048 3.175-2.048 3.584 0 3.379 1.024-1.127 6.246-4.3 4.916-30.003 31.642-42.803 44.442-4.506 4.608-9.83 10.854-11.776 14.131-1.946 3.175-3.789 5.837-4.198 5.837s0.614 2.662 2.252 5.94c1.639 3.174 2.97 6.45 2.97 7.167 0 0.82 0.922 2.663 2.15 4.096 3.687 4.813 7.066 10.547 7.066 11.879 0 0.716 1.126 2.355 2.56 3.686s2.56 3.174 2.56 4.096 0.922 2.765 2.048 4.096 2.355 3.482 2.662 4.71c0.308 1.332 1.741 3.072 3.072 3.994 1.332 0.82 2.458 2.253 2.458 3.174 0 1.434 5.53 11.47 10.138 18.33 1.126 1.74 3.481 5.837 5.222 9.216 1.843 3.38 4.096 7.066 5.018 8.192 2.56 2.867 13.414 21.3 13.414 22.733 0 0.614 0.717 1.638 1.536 2.355s3.38 4.608 5.632 8.704 4.813 7.987 5.632 8.704 1.536 1.843 1.536 2.56 1.638 3.789 3.686 6.758c2.048 3.072 4.813 7.68 6.144 10.445 1.332 2.663 2.97 4.813 3.482 4.813 0.614 0 1.536 1.229 2.15 2.867 2.56 6.247 3.584 7.987 6.247 11.264 1.638 1.843 2.867 3.994 2.867 4.71s1.331 3.175 2.867 5.325 3.482 5.428 4.199 7.27c1.228 3.073 1.126 3.38-2.15 6.452-1.844 1.74-5.428 4.198-7.988 5.53s-6.451 4.096-8.704 6.144-5.222 4.096-6.656 4.403c-2.56 0.614-9.523 4.915-14.54 9.113-1.537 1.23-5.12 3.072-7.988 3.994-3.072 1.024-5.837 2.765-6.86 4.198-0.922 1.434-2.56 2.458-3.994 2.458-2.048 0-11.162 5.222-12.698 7.27-0.82 1.024-6.963 3.994-8.5 3.994-0.716 0-2.866 1.638-4.812 3.584s-3.994 3.584-4.608 3.584-2.662 1.331-4.608 2.867c-1.946 1.639-5.734 3.789-8.5 4.813-2.662 1.024-7.986 3.891-11.775 6.349-3.789 2.56-8.704 5.222-10.855 6.041-2.252 0.82-5.427 2.56-7.168 3.892-4.403 3.276-23.04 14.95-24.064 14.95-0.41 0-4.198 2.253-8.396 5.12-4.096 2.765-8.09 5.12-8.602 5.12-0.614 0-3.482 1.74-6.349 3.891-2.867 2.048-7.577 5.12-10.547 6.656-2.97 1.639-5.53 3.789-5.837 4.915-0.307 1.024-1.126 1.946-1.843 1.946-1.126 0-1.434-7.373-1.74-36.557z m-666.829 0.615c-0.921-3.994-1.638-8.192-1.638-9.319s-0.717-5.12-1.536-8.909c-1.434-6.246-8.704-50.892-8.704-53.35 0-0.512 0.82-1.024 1.946-1.024 1.536 0 2.048 1.024 2.56 4.915 0.41 2.663 1.33 8.5 2.15 13.005s1.946 11.674 2.662 15.872c0.615 4.198 1.844 10.957 2.663 14.848 1.74 8.5 4.403 25.702 4.403 28.98 0 1.228-0.614 2.252-1.434 2.252-0.921 0-1.945-2.56-3.072-7.27z m47.514-65.434c0-1.126-0.41-2.048-1.024-2.048-0.512 0-1.024-0.717-1.024-1.536 0-0.922-0.82-2.56-1.946-3.686l-1.945-2.048-2.048 2.56c-1.639 2.15-2.867 2.662-6.759 2.662-4.505 0-4.71-0.102-4.71-3.072 0-1.638-0.922-4.813-2.15-7.066-1.536-2.97-2.15-6.758-2.663-15.155-0.41-8.601-1.024-12.185-2.97-16.281-1.228-2.765-2.662-7.578-3.071-10.445-0.41-2.97-1.127-5.632-1.536-5.94-0.512-0.307-0.922-1.843-0.922-3.481s-1.434-5.222-3.174-7.885c-2.868-4.608-3.072-5.325-2.458-11.571 0.614-7.168-0.717-16.589-2.458-17.203-0.614-0.205-1.126-1.639-1.126-3.277 0-3.174-2.97-9.216-4.608-9.216-1.024 0-3.072-3.994-5.632-10.957-0.82-2.048-0.922-5.222-0.512-8.499 0.614-4.608 0.41-5.734-1.946-9.216-1.638-2.458-2.662-5.53-2.662-7.782 0-2.048-0.614-5.12-1.434-6.861-0.819-1.843-1.74-4.403-2.048-5.837-1.843-8.806-4.096-17.306-5.222-20.173-0.82-1.74-2.355-7.065-3.482-11.776-2.56-10.752-5.734-19.968-7.475-21.606-0.717-0.717-2.662-2.355-4.3-3.584-2.97-2.253-2.97-2.253-4.404-0.205-0.819 1.126-2.355 2.048-3.379 2.048-2.765 0-1.536 2.867 1.331 3.277 1.946 0.307 2.253 1.024 2.56 5.939 0.205 3.072-0.205 6.554-0.921 7.885-1.024 1.843-1.024 3.891-0.103 9.216 1.229 6.86 1.536 9.523 2.867 21.094 0.615 4.813 0.41 5.837-0.921 5.837-1.639 0-2.253-1.74-3.277-9.728-0.41-2.765-1.331-7.168-2.048-9.728-0.82-2.56-1.946-8.5-2.56-13.312s-1.434-9.42-1.74-10.24-0.718-3.686-0.922-6.451c-0.308-5.94-5.223-32.256-7.066-38.605-0.82-2.56-1.434-6.963-1.434-9.728 0-2.867-0.512-7.373-1.126-10.24-2.97-13.21-3.686-17.203-6.042-34.304-2.457-16.998-3.174-21.402-4.096-23.86-0.512-1.33-1.536-6.143-2.15-10.546-2.56-17.408-3.072-20.788-5.12-31.642-1.126-6.144-2.97-17.51-4.198-25.088-3.38-22.016-3.687-23.654-5.94-32.256-1.126-4.506-2.15-9.42-2.15-10.957 0-4.3-2.048-16.793-4.198-25.702-1.127-4.301-2.458-12.186-2.97-17.51s-2.15-15.053-3.482-21.71c-1.33-6.758-2.764-15.052-3.174-18.636-0.307-3.482-1.229-8.5-2.048-11.06-2.048-6.963-3.072-22.527-1.638-24.37 0.716-0.82 4.198-2.458 7.884-3.687 3.584-1.229 6.759-2.662 7.066-3.072 0.307-0.512 3.891-1.946 7.987-3.174 4.096-1.127 8.5-2.765 9.933-3.482 1.434-0.82 6.451-3.072 11.264-5.12 4.813-1.946 10.547-4.506 12.8-5.632s4.506-2.048 4.915-2.048c1.639 0 24.679-9.42 28.877-11.776 2.253-1.331 6.144-3.072 8.704-3.891 8.192-2.765 27.955-11.06 36.352-15.155 4.403-2.15 8.704-3.994 9.42-3.994 0.82 0 3.79-1.229 6.657-2.662s7.782-3.482 10.957-4.506 7.372-2.56 9.318-3.38c1.946-0.92 6.349-2.866 9.728-4.3 7.373-3.277 12.698-5.632 15.053-6.758 1.024-0.512 2.355-0.922 2.867-0.922 0.614 0 3.994-1.434 7.475-3.174 3.482-1.639 11.264-4.71 17.306-6.656 6.041-2.048 11.469-4.301 12.185-5.12 0.615-0.82 2.253-1.434 3.584-1.434 2.458 0 15.77 6.554 21.402 10.65 3.686 2.662 5.12 3.584 10.547 6.45 2.253 1.332 4.506 2.766 4.813 3.38 0.41 0.614 2.355 1.74 4.403 2.662 4.403 1.844 17.203 9.216 20.173 11.674 1.126 0.922 5.734 3.686 10.24 6.042 4.506 2.457 11.162 6.348 14.848 8.806 3.686 2.355 10.342 6.246 14.848 8.704 4.506 2.355 8.397 4.608 8.704 5.018 0.307 0.512 2.458 1.843 4.813 3.072 2.355 1.126 4.505 2.56 4.915 3.072 0.307 0.614 3.482 2.457 6.963 4.3 3.482 1.741 9.421 5.223 13.21 7.68 8.601 5.53 14.54 8.602 16.691 8.602 2.253 0 10.035-4.096 11.06-5.734 0.409-0.82 1.33-1.434 1.842-1.434 1.332 0 15.668-6.86 20.378-9.728 3.994-2.458 18.534-10.342 28.365-15.36 3.379-1.74 6.86-3.686 7.68-4.3 0.717-0.615 7.68-4.404 15.565-8.398 7.782-4.096 16.076-8.601 18.432-10.24 2.252-1.536 9.318-5.427 15.462-8.499 6.246-3.072 13.62-6.86 16.384-8.397 6.554-3.584 9.728-3.174 21.402 2.663 1.024 0.512 4.608 1.843 7.987 2.97 9.625 3.071 18.227 7.167 18.227 8.806 0 0.819-1.024 2.457-2.355 3.686s-10.343 9.83-20.173 19.149c-9.728 9.318-21.709 20.89-26.522 25.702s-12.288 11.981-16.486 15.77-11.776 10.957-16.896 15.77c-5.018 4.812-16.794 15.974-26.112 24.678s-20.685 19.558-25.19 24.064c-4.608 4.506-13.517 13.005-19.866 18.944-17.51 16.384-18.33 17.408-14.336 17.408 1.331 0 1.843 0.512 1.434 1.536-0.512 1.331-13.312 1.536-106.496 1.536H227.328v81.715c-0.102 128.103-1.024 230.605-2.253 235.213-0.512 2.253-1.433 4.403-1.945 4.71s-1.23 4.096-1.536 8.397c-0.615 6.963-0.512 7.885 1.024 7.885 0.921 0 2.15 1.229 2.662 2.662 0.614 1.536 1.024 24.781 1.024 58.88v56.218h-3.584c-2.867 0-3.584-0.41-3.584-2.048 0-1.434-0.717-2.048-2.458-2.048-2.15 0-2.457-0.512-2.97-6.451-0.92-9.83 0.206-17.92 2.458-18.637 1.741-0.614 1.946-1.74 1.844-10.035-0.103-9.626-0.512-9.216-2.56 2.355-0.308 1.946-1.741 6.144-3.175 9.216-1.433 3.174-2.662 7.782-2.765 10.547-0.204 5.735-1.33 6.759-9.318 8.397l-5.12 1.024-0.307 4.506c-0.512 6.656-4.915 10.342-12.39 10.342-3.482 0-4.199-0.307-4.199-2.048zM87.142 433.254c-0.614-1.126-1.126-3.072-1.126-4.403s-0.922-3.481-2.048-4.915l-2.048-2.56v8.192c0 10.035 0.512 12.083 3.38 13.312 2.047 0.922 2.252 0.717 2.56-3.277 0.204-2.355-0.206-5.222-0.718-6.349z m29.696 237.466c-1.536-7.066-1.433-8.192 0.82-8.192 1.433 0 2.048 1.024 2.56 4.71 0.921 7.066 0.819 8.602-0.82 8.602-0.921 0-1.843-1.946-2.56-5.12z m-1.126-12.8c0-0.717-0.717-1.843-1.536-2.355-1.74-0.922-3.584-10.138-3.584-17.818 0-4.096 0.307-4.915 1.843-4.915 2.253 0 3.789 4.198 5.325 15.053 1.331 9.83 1.331 11.571-0.512 11.571-0.82 0-1.536-0.717-1.536-1.536z"
          fill="#08BDD4" p-id="8922"></path>
    <path d="M107.622 616.243c-0.614-2.97-1.536-8.601-2.15-12.595-0.614-3.891-1.843-10.342-2.662-14.131-0.922-3.891-1.332-8.09-1.024-9.523 0.41-1.332 0-3.79-0.717-5.325-0.82-1.536-1.741-5.325-2.048-8.397-0.41-3.072-1.639-10.957-2.867-17.408-1.127-6.451-2.356-14.234-2.663-17.1-0.512-4.916-0.41-5.428 1.536-5.428 2.15 0 3.277 3.38 3.277 9.83 0 1.844 0.41 4.506 1.024 6.042 0.512 1.434 1.434 6.86 2.048 12.083 1.229 11.06 2.867 19.968 4.198 22.426 1.024 2.15 2.458 10.547 4.506 27.955 1.843 16.384 1.843 16.896 0.102 16.896-1.024 0-1.843-1.946-2.56-5.325zM296.96 464.384c0-4.096 2.458-5.018 3.482-1.229s0.716 4.813-1.434 4.813c-1.638 0-2.048-0.717-2.048-3.584z m66.56-94.208c0-2.867 0.41-3.584 2.048-3.584 2.15 0 2.458 1.024 1.434 4.915-1.024 3.687-3.482 2.765-3.482-1.331z m321.536-71.168c0-0.512-0.717-1.024-1.536-1.024s-1.536-0.717-1.536-1.536c0-1.024 1.126-1.536 3.584-1.536 2.867 0 3.584 0.41 3.584 1.946 0 1.024-0.717 2.252-1.638 2.56-2.15 0.819-2.458 0.819-2.458-0.41z"
          fill="#08BDD4" p-id="8923"></path>
    <path d="M689.152 997.683c-12.39-1.331-31.027-4.505-32.973-5.632-1.331-0.717-4.198-1.433-6.451-1.433-6.144-0.205-21.811-2.253-23.142-2.97-1.741-1.126-14.439-3.584-18.432-3.584-1.946 0-5.94-0.614-8.704-1.434-2.765-0.716-7.578-1.433-10.65-1.536-3.072 0-7.68-0.716-10.24-1.536-7.987-2.56-16.691-4.608-22.016-5.12-10.957-1.126-22.733-2.764-27.136-3.686-2.56-0.614-5.94-1.229-7.68-1.434-1.638-0.204-7.885-1.33-13.824-2.56-16.998-3.379-28.774-5.324-34.611-5.836-2.97-0.205-6.247-0.82-7.168-1.23-0.922-0.511-4.096-1.023-6.963-1.126s-9.933-1.536-15.77-3.174c-5.734-1.74-11.674-3.072-13.21-3.072-1.433 0-7.68-0.922-13.926-1.946-6.144-1.126-17.408-2.97-24.883-4.198-7.578-1.229-14.643-2.56-15.872-3.072s-7.27-1.434-13.517-2.048c-11.264-1.126-23.86-3.38-29.798-5.222-1.741-0.512-6.554-1.332-10.752-1.946-10.343-1.331-17.204-2.662-28.058-5.222-5.018-1.23-11.776-2.356-14.848-2.56s-7.68-0.82-10.24-1.332-7.578-1.33-11.264-1.638c-3.686-0.41-9.42-1.331-12.8-2.253-3.38-0.819-9.523-1.945-13.62-2.457s-8.294-1.332-9.215-1.844-4.71-1.228-8.397-1.638c-3.686-0.307-8.909-1.331-11.776-2.048-2.765-0.82-9.42-1.946-14.643-2.56s-11.469-1.74-13.824-2.56-5.325-1.536-6.554-1.536-2.56-0.512-2.867-1.126c-0.41-0.615-1.331-0.82-2.048-0.512-2.765 1.024-4.608-2.048-6.042-10.138-0.819-4.506-2.457-13.722-3.686-20.48s-2.56-14.54-3.072-17.408c-0.512-2.765-1.843-10.445-3.072-16.896-3.072-16.998-5.734-34.509-7.68-49.152-0.82-7.066-2.355-15.258-3.174-18.33-0.922-3.072-2.458-11.673-3.482-18.944-1.024-7.372-2.56-16.588-3.38-20.582-0.818-3.891-2.047-10.65-2.662-14.848-2.764-16.998-4.403-26.42-5.734-32.768-0.717-3.686-1.946-11.264-2.56-16.896-1.946-15.872-3.789-27.136-5.53-33.28-1.536-5.837-2.56-12.288-5.324-35.328-0.82-7.27-2.663-17.408-3.994-22.528-1.331-5.018-2.97-13.722-3.482-19.149-0.614-5.427-1.536-11.059-2.15-12.595-0.512-1.434-1.024-4.403-1.024-6.451s-0.41-5.427-1.024-7.373c-1.74-6.246-4.71-26.829-5.734-40.038-0.41-5.325-0.308-8.09 0.512-8.5 1.433-0.921 1.536-6.45 0.102-7.27-0.614-0.41-1.74-0.205-2.458 0.41-1.33 1.126-1.536 0.512-4.71-16.077-0.41-2.355-0.41-4.608 0.102-4.915s0.922 0.41 0.922 1.433c0 1.127 0.922 2.253 2.048 2.56 1.638 0.41 1.946 1.127 1.536 3.072-0.922 3.584 1.126 4.403 3.174 1.229 1.332-2.048 1.434-3.174 0.615-5.018-0.615-1.433-0.717-2.867-0.103-3.788 0.512-0.82 0.82-2.765 0.82-4.506l-0.103-3.072-0.819 3.38c-1.126 4.71-1.946 5.12-2.662 1.433-0.41-1.843-1.23-3.277-1.946-3.277s-1.536-0.717-1.946-1.536c-0.307-0.82-1.228-1.229-1.945-0.922-2.048 0.717-2.765-3.993-2.867-16.69-0.103-9.524 1.228-15.668 3.379-15.668 0.512 0 1.229 0.82 1.536 1.843 0.41 0.922 1.843 3.277 3.277 5.223 1.433 1.843 2.662 4.608 2.867 6.144 0.102 1.433 0.717 4.71 1.331 7.168s0.82 5.939 0.41 7.577c-0.41 2.048-0.308 2.765 0.512 2.355 0.716-0.512 0.921 0.82 0.614 4.199-0.41 3.584-0.307 4.3 0.41 2.867 0.921-1.843 1.024-1.843 1.024 0.614 0.102 1.434 0.716 3.175 1.433 3.892 0.922 1.126 0.922 1.33 0 0.716-0.921-0.512-1.331 0-1.331 1.332 0 1.126 1.843 3.379 4.403 5.427 2.355 1.843 4.915 3.891 5.632 4.608 1.741 1.638 4.915 10.854 7.475 21.811 1.23 4.71 2.765 9.83 3.482 11.264s1.536 4.71 1.946 7.373 1.126 5.12 1.638 5.427 0.717 1.229 0.41 1.946 0.204 2.15 1.126 3.072 1.536 2.662 1.434 3.993c-0.103 1.229 0.102 2.97 0.41 3.789 2.252 5.53 3.378 10.342 2.662 10.854-0.512 0.308-0.103 1.741 1.024 3.277 3.072 4.403 5.324 10.547 4.3 11.879-1.433 1.843-1.536 4.915-0.307 9.42 1.127 3.687 4.301 8.192 4.301 6.042 0-2.048 5.12 9.523 5.325 11.98 0.102 1.537 0.512 2.56 0.921 2.254 1.024-0.615 2.56 6.656 2.868 13.926 0.102 3.584 0.716 7.475 1.228 8.5 0.615 1.023 0.82 2.662 0.615 3.583-0.41 1.639-0.512 1.639-0.615 0 0-1.024-0.614-1.843-1.126-1.843-1.229 0-0.102 2.355 3.891 8.397 1.434 2.253 2.253 4.505 1.843 5.53-0.307 0.921-0.204 2.252 0.308 2.867 0.41 0.614 1.228 3.481 1.638 6.246 0.41 2.867 1.74 7.475 3.072 10.24 1.74 3.891 2.458 7.68 2.867 16.077 0.615 11.366 2.663 18.227 5.427 18.227 0.82 0 1.434 0.922 1.434 2.15 0 1.127-0.41 1.741-1.024 1.434-0.512-0.307-1.024 0.307-1.024 1.434 0 3.072 2.765 2.662 5.837-0.922 1.433-1.74 3.584-3.072 4.813-3.072 2.457 0 6.758 4.198 6.758 6.656 0 0.82 0.512 1.536 1.024 1.536 0.614 0 1.024 0.922 1.024 2.048 0 2.355 1.229 2.56 4.403 0.922 4.199-2.15 5.837-4.813 5.837-9.012 0-5.12 1.536-6.246 8.192-6.246 2.253 0 3.38-0.614 4.096-2.253 0.512-1.433 0.922-1.74 1.024-0.819 0.102 1.024 0.41 0.922 0.922-0.512 0.512-1.126 0.512-2.458 0.102-3.072-1.126-1.536-0.512-3.891 2.765-10.445 1.536-3.277 2.765-6.246 2.662-6.656-0.102-0.307 0.41-2.867 1.229-5.632s1.74-7.987 2.048-11.673c0.922-11.264 1.024-11.47 3.38-11.879 3.276-0.41 3.378 0.512 3.276 23.245-0.102 14.54-0.307 15.565-3.584 16.691-0.614 0.205-0.512 1.024 0.307 1.946 0.922 1.229 1.024 1.74 0.103 2.048-1.536 0.512-1.434 8.09 0.102 9.011 0.922 0.512 0.922 0.922 0.102 1.434-1.945 1.228-1.228 3.379 1.127 3.276 1.536-0.102 2.457 0.615 2.97 2.458 0.409 1.434 0.716-21.504 0.819-50.893 0.102-51.2-0.308-59.801-2.868-58.163-0.512 0.307-1.74-0.512-2.56-1.74-1.228-1.742-1.33-2.458-0.307-3.073 0.922-0.614 0.82-0.819-0.307-0.819-1.024 0-1.126-0.307-0.41-0.82 0.615-0.409 1.434-4.198 1.844-8.396 0.307-4.198 1.024-7.885 1.536-8.192 2.764-1.638 3.174-10.854 3.174-61.952 0-29.082 0.307-54.067 0.614-55.398s1.332-2.458 2.15-2.458c1.23 0 1.434 24.474 1.332 184.525-0.102 101.58-0.102 185.241-0.102 186.06 0.102 1.23 37.17 1.332 254.873 0.717 258.355-0.819 299.213-0.512 299.213 2.048 0 0.82-0.717 1.434-1.536 1.434s-1.536 0.614-1.536 1.434c0 1.126-7.168 6.758-8.602 6.758-1.024 0-1.433-4.608-0.41-5.837 1.844-2.253-3.071-1.638-6.04 0.717-3.482 2.765-6.247 2.662-6.657-0.205-0.307-2.15-0.819-2.355-5.939-2.355-6.656 0.102-11.571 1.229-10.752 2.56 1.229 2.048-10.445 3.174-20.173 2.048-5.222-0.614-10.137-1.229-10.752-1.229-0.717-0.102-1.536-0.921-1.843-1.945-0.41-1.024-1.331-1.639-2.458-1.434-2.97 0.512-17.51 0.512-101.888-0.102-78.54-0.615-78.745-0.615-78.233 1.433 0.512 1.741-0.103 2.253-3.687 3.175-3.481 0.921-10.24 1.74-16.793 2.048-0.717 0.102-1.024 0.614-0.717 1.126 0.307 0.614 0 1.024-0.922 1.024-0.819 0-1.638-0.512-1.843-1.024-0.512-1.536-8.806 1.946-8.601 3.584 0.102 0.717 0.819 2.048 1.536 2.97 1.228 1.433 1.228 1.638-0.103 1.126-0.921-0.41-1.843 0.102-2.15 0.922-0.512 1.228-2.15 1.638-6.349 1.638-5.427 0-7.373 1.126-3.994 2.458 1.23 0.512 1.536 1.638 1.23 4.198-0.206 1.946-0.103 3.584 0.204 3.584s1.126 2.662 1.946 5.837c0.921 3.993 2.252 6.553 4.3 8.397 1.639 1.433 2.97 3.072 2.97 3.584 0 0.614 1.229 2.252 2.765 3.89 1.433 1.537 2.765 3.687 2.867 4.609 0.102 1.024 0.614 2.765 1.126 3.891 0.922 2.253 6.554 7.68 7.885 7.68 1.741 0 9.011 8.704 9.728 11.776 0.512 1.74 1.946 3.686 3.38 4.3 1.33 0.718 2.047 1.332 1.535 1.332-1.638 0 2.868 2.97 4.608 3.072 1.844 0 9.83 7.68 10.65 10.342 0.41 1.127 1.024 1.946 1.536 1.946s4.506 3.482 8.909 7.782c9.011 8.807 10.957 9.728 18.534 9.728 5.223 0 8.295-1.126 11.776-4.608 0.82-0.819 3.994-2.662 6.963-3.993 3.072-1.331 7.373-3.687 9.524-5.12 2.15-1.536 5.324-2.765 6.963-2.765 2.253 0 3.993-1.126 6.656-4.096 2.048-2.253 4.3-4.096 5.017-4.096s3.482-1.843 6.042-4.096c3.174-2.765 5.734-4.096 7.782-4.096 1.946 0 3.79-0.922 5.325-2.662 2.048-2.356 7.066-5.325 21.709-12.493 2.867-1.434 5.632-3.175 6.144-3.891 1.229-1.434 8.704-5.53 10.24-5.53 0.614 0 3.072-1.843 5.53-4.096 2.355-2.253 4.915-4.096 5.632-4.096 1.74 0 21.81-11.98 24.268-14.438 1.024-1.024 3.175-2.15 4.71-2.56 4.814-1.127 10.446-4.404 13.313-7.68l2.765-2.97 1.843 2.867c1.74 2.867 1.74 3.072-0.615 10.035-1.33 3.892-2.97 11.264-3.584 16.282-0.716 5.12-1.945 11.264-2.662 13.824-0.82 2.56-1.946 9.011-2.662 14.336-0.615 5.325-1.536 10.752-2.048 12.083s-1.639 6.042-2.458 10.343-3.277 16.793-5.427 27.75c-2.253 10.957-4.813 24.371-5.735 29.696-1.024 5.325-2.457 13.005-3.379 16.896-0.819 3.994-2.048 10.035-2.662 13.62-0.615 3.48-1.639 6.246-2.253 6.143-0.512 0-2.662-0.307-4.608-0.512z m-470.22-375.398c0-1.946-0.513-3.482-1.127-3.482-0.717 0-1.229 1.024-1.229 2.355 0 1.23 0.307 2.048 0.82 1.741 0.409-0.205 0.716 0.307 0.716 1.127 0 0.921 0.205 1.638 0.41 1.638s0.41-1.536 0.41-3.38z"
          fill="#2097CD" p-id="8924"></path>
    <path d="M754.176 813.056c-1.024-1.638 1.434-5.12 3.584-5.12 2.662 0 2.56 1.843-0.205 4.198-2.56 2.253-2.56 2.253-3.379 0.922z m31.232-14.336c0-1.843 0.614-2.048 5.632-2.048h5.632v-68.608c0-57.754 0.205-68.608 1.434-68.608 0.716 0 1.638 0.82 1.843 1.843 0.205 0.922 0.41 32.666 0.307 70.349v68.608l-7.373 0.307c-6.963 0.307-7.475 0.103-7.475-1.843z m-505.549-72.397c-1.945-0.717-1.74-7.475 0.205-7.475 0.82 0 1.536 0.614 1.536 1.434s0.717 1.74 1.638 2.048 48.128 0.614 105.063 0.614c102.502 0 103.424 0 103.936-2.048 1.024-3.789 3.379-2.355 3.379 2.048v4.096l-107.213-0.102c-59.085 0-107.93-0.308-108.544-0.615z m212.378-39.219c-0.41-1.638-1.434-2.048-4.71-2.048-3.482 0-4.199-0.307-4.199-2.048 0-2.253 2.867-2.662 9.114-1.434 2.764 0.615 3.174 1.024 3.174 4.096 0 3.892-2.458 4.916-3.38 1.434z m133.222-136.192c-11.366-2.355-24.78-6.246-25.19-7.373-0.205-0.41-1.229-0.819-2.253-0.819-1.946 0-9.216-2.97-10.24-4.198-0.307-0.41-1.536-0.922-2.765-1.332-1.331-0.41-2.355-1.433-2.355-2.252s-0.922-1.434-2.048-1.434c-2.458 0-7.168-2.15-7.168-3.277 0-0.41-0.717-0.819-1.536-0.819s-1.536-0.717-1.536-1.536c0-0.922-0.922-1.536-2.56-1.536-1.434 0-2.56-0.41-2.56-0.922s-0.922-1.126-2.15-1.433c-1.127-0.307-2.356-1.536-2.663-2.663-0.307-1.228-1.433-2.15-2.457-2.15-1.127 0-2.253-0.717-2.56-1.536-0.41-0.82-1.23-1.536-1.946-1.536-2.662 0-3.584-8.192-1.229-10.752 1.536-1.74 2.97-3.686 4.301-5.837 3.174-4.915 8.397-10.957 9.523-11.059 0.615 0 1.229-0.717 1.229-1.638s1.638-3.277 3.584-5.223 3.584-3.789 3.584-4.096 1.024-1.536 2.355-2.765 2.663-2.97 3.072-3.993c0.41-1.229 1.741-1.741 4.301-1.741 2.867 0 3.584 0.41 3.584 2.048 0 1.229-0.512 1.74-1.331 1.434-1.434-0.512-3.891 2.15-15.667 16.998-3.79 4.813-8.5 10.547-10.343 12.8-1.945 2.253-3.993 4.71-4.608 5.427-0.614 0.82-0.717 2.15-0.205 3.277 1.23 2.56 12.596 11.469 19.764 15.565 3.174 1.74 5.939 3.481 6.246 3.789s4.915 2.764 10.24 5.324c9.42 4.608 22.63 8.704 35.328 11.162 12.8 2.355 15.872 3.277 15.872 4.71 0 1.946-6.349 1.741-17.613-0.614z m42.189 0.614c0-1.33 7.578-3.686 11.776-3.686 2.15 0 23.142-6.963 26.931-8.909 1.741-1.024 3.277-2.15 3.277-2.56 0-0.512 0.512-0.819 1.126-0.819 1.434 0 7.578-4.813 14.03-11.06 13.106-12.697 20.48-36.556 18.534-59.698-0.82-10.036-3.687-20.48-7.168-26.112-2.56-4.096-2.458-4.506 0.614-4.506 2.15 0 2.56 0.512 2.56 3.072 0 1.946 0.512 3.072 1.434 3.072 2.97 0 6.758 17.818 6.758 31.744 0 8.909-1.536 19.66-4.198 29.184-2.048 7.475-5.94 15.872-7.27 15.872-0.513 0-0.82 0.717-0.82 1.536s-0.41 1.536-1.024 1.536c-0.512 0-1.024 0.717-1.024 1.536 0 0.922-0.922 1.536-2.56 1.536-1.946 0-2.56 0.512-2.56 2.355 0 2.867-8.294 10.957-11.264 10.957-1.126 0-2.048 0.717-2.048 1.536s-0.512 1.536-1.126 1.536-1.741 0.717-2.56 1.536c-0.922 0.82-2.663 1.536-4.096 1.536-1.332 0-2.458 0.512-2.458 1.024 0 0.614-1.126 1.024-2.56 1.024s-2.56 0.41-2.56 0.922c0 1.024-8.294 3.686-18.227 5.734-9.523 1.946-13.517 1.946-13.517 0.102z m-345.088-3.584c0-1.433-0.614-2.15-1.843-2.15-1.434 0-2.458-2.15-4.71-9.933-1.639-5.53-3.482-12.595-4.199-15.667s-3.174-11.878-5.427-19.456c-8.807-30.003-14.541-52.634-14.541-57.242 0-1.638-0.41-3.174-1.024-3.379-0.922-0.307-3.482-8.601-9.216-30.003a13259.678 13259.678 0 0 0-23.04-83.968c-2.765-9.523-5.12-18.944-5.427-20.685-0.205-1.843-0.82-3.379-1.331-3.379s-0.922-1.638-0.922-3.584c0-3.38 0.205-3.584 3.584-3.584 2.458 0 3.584 0.512 3.584 1.536 0 0.82-0.717 1.536-1.638 1.536-1.024 0-1.434 0.614-1.024 1.843 6.553 22.528 14.336 50.279 15.974 57.037 1.024 3.994 3.482 13.21 5.53 20.48 6.246 22.016 16.179 58.163 16.69 60.928 0.206 1.434 0.82 3.482 1.332 4.608 0.41 1.126 1.331 4.403 2.048 7.168 2.355 10.035 9.42 35.84 10.342 37.58 0.512 1.025 0.922 2.56 0.922 3.585 0 0.921 0.41 3.072 1.024 4.813 2.355 7.27 6.246 20.787 6.656 23.142 0.307 1.434 1.946 7.987 3.789 14.54l3.379 12.084h4.096c2.253 0 12.288 0.205 22.22 0.307 17.92 0.205 18.126 0.205 19.15-2.15 0.614-1.229 3.174-10.24 5.734-19.968 2.56-9.626 6.144-23.143 8.09-29.901 1.843-6.758 3.993-14.54 4.71-17.408 0.717-2.765 1.843-7.168 2.56-9.728s2.56-9.216 3.994-14.848c7.577-28.365 13.312-47.616 13.926-46.9 0.41 0.41 2.867 9.114 5.53 19.252 2.764 10.138 6.041 22.323 7.372 27.136 5.223 19.149 19.252 70.86 22.324 82.227 2.662 10.343 3.481 12.186 5.427 12.595 3.993 1.024 2.867 3.482-1.536 3.482h-3.891l-3.79-14.54c-2.047-8.09-3.788-15.668-3.788-16.897 0-1.331-0.41-2.355-0.82-2.355-0.511 0-1.33-1.946-1.945-4.3-0.614-2.458-4.608-17.511-9.011-33.588s-9.728-35.84-11.878-43.827c-2.048-8.09-4.096-14.95-4.404-15.258-0.204-0.307-0.819 1.127-1.126 3.175-0.41 2.048-1.126 3.686-1.536 3.686s-1.024 2.15-1.331 4.915c-0.41 2.663-1.639 8.295-2.765 12.493-4.915 17.408-6.349 23.245-6.86 26.42-0.308 1.74-0.922 3.276-1.434 3.276s-0.922 1.024-0.922 2.355-1.126 6.451-2.458 11.571c-1.433 5.018-4.096 14.848-6.041 21.914s-5.018 18.33-6.759 25.19c-1.843 6.759-3.788 13.005-4.198 13.824-0.82 1.127-5.53 1.536-25.088 1.741-23.757 0.41-24.064 0.307-24.064-1.74z m155.648 0.41c0-1.74 5.94-3.072 10.138-2.253 2.764 0.615 2.867 0.41 5.017-7.27 7.885-28.365 9.523-34.509 11.981-43.725 1.536-5.632 5.018-18.33 7.885-28.16 4.198-14.746 8.806-31.232 18.227-66.048 0.41-1.638 3.891-14.131 7.68-27.648s7.782-28.262 8.806-32.768c1.127-4.506 2.458-9.83 2.97-11.776 5.94-21.504 8.192-29.594 8.192-30.106 0-0.307-0.717-0.614-1.536-0.614s-1.536-0.717-1.536-1.536c0-1.024 1.126-1.536 3.584-1.536 3.277 0 3.584 0.307 3.584 2.867 0 1.536-0.717 5.12-1.638 7.885-0.82 2.867-1.946 6.963-2.458 9.216s-1.434 5.94-2.048 8.192-1.536 5.734-2.048 7.68c-1.024 4.403-3.482 13.21-14.336 52.224-4.608 16.589-10.24 37.171-12.595 45.568-2.253 8.5-4.506 15.565-5.018 15.667-0.41 0.205-0.819 1.536-0.819 2.867 0 3.79-2.15 11.674-3.174 11.674-0.512 0-0.922 1.331-0.922 2.867s-1.536 8.295-3.482 15.053-5.222 18.74-7.372 26.624c-2.048 7.885-4.199 14.54-4.71 14.643-0.41 0.205-0.82 1.331-0.82 2.56 0 3.072-3.277 16.487-4.096 17.101-0.41 0.307-1.024 2.662-1.434 5.427-0.512 3.175-1.228 4.813-2.252 4.813-0.82 0-1.434 0.512-1.434 1.024 0 0.614-3.072 1.024-7.168 1.024-5.632 0-7.168-0.307-7.168-1.536z m160.256-48.64c-15.565-3.072-27.853-9.216-18.637-9.216 2.048 0 3.789 0.41 3.994 0.82 0.41 1.228 22.118 6.348 26.726 6.348 3.072 0 3.789 0.41 3.789 2.048 0 2.56-3.072 2.56-15.872 0z m20.992 0.205c0-1.843 0.82-2.15 6.656-2.765 3.686-0.41 6.656-1.126 6.656-1.536s1.126-1.024 2.355-1.434c3.584-0.819 11.981-9.113 11.981-11.673 0-1.536 0.614-2.253 2.048-2.253 2.458 0 2.56 2.15 0.205 7.27-3.277 7.066-12.493 12.186-24.883 13.824-4.608 0.615-5.018 0.512-5.018-1.433z"
          fill="#2097CD" p-id="8925"></path>
    <path d="M607.744 488.14c-6.144-3.583-16.486-10.751-18.022-12.594-1.127-1.434-0.82-1.536 2.764-1.23 3.277 0.206 4.096 0.718 4.301 2.663 0.307 1.741 1.024 2.253 3.38 2.253 1.638 0 2.969 0.512 2.969 1.024 0 0.614 0.717 1.024 1.536 1.024s1.536 0.41 1.536 0.82 1.638 1.433 3.584 2.15c2.765 0.921 3.584 1.843 3.584 3.788 0 3.072-0.512 3.072-5.632 0.103z m78.336-17.1c-0.717-2.253-1.946-4.096-2.662-4.096s-1.946-0.82-2.663-1.843-5.734-3.687-11.059-5.735c-5.325-2.15-11.366-4.505-13.312-5.324s-8.09-2.56-13.722-3.994c-5.53-1.434-10.956-3.072-11.98-3.584-1.024-0.614-2.765-1.024-3.892-1.024-1.638 0-2.15-0.614-2.15-2.458 0-2.355 0.205-2.457 3.38-1.536 1.74 0.615 3.993 1.23 4.812 1.536 0.82 0.205 6.86 1.844 13.312 3.584 6.451 1.639 13.21 3.687 14.848 4.404 2.867 1.33 7.475 2.97 8.704 3.174 2.15 0.307 12.493 5.837 15.258 8.192 5.324 4.608 8.192 12.8 4.403 12.8-1.331 0-2.355-1.331-3.277-4.096z m195.686-0.307c-1.33-1.639-9.318-19.661-13.516-30.413-2.56-6.451-2.97-9.011-2.868-16.077 0.103-4.608 0.615-8.192 1.024-7.885 0.512 0.308 0.922-0.204 0.922-1.024 0-1.945 3.891-6.041 5.018-5.324 2.457 1.536 9.523-13.62 9.42-20.07 0-3.175 3.38-6.35 12.186-11.367 4.608-2.765 6.144-4.301 8.602-9.216 1.638-3.277 4.608-7.27 6.553-8.704 1.946-1.536 5.53-4.506 7.885-6.554 2.355-2.15 4.71-3.891 5.12-3.891 1.331 0 6.656-5.632 6.656-6.963 0-0.717 0.41-1.127 0.922-0.82 1.228 0.82 6.041-5.017 6.86-8.191 0.308-1.332 1.024-2.253 1.434-1.946 0.512 0.307 1.638-2.048 2.56-5.12 0.922-3.277 2.15-5.632 2.867-5.427 3.072 0.512 14.029-2.867 14.029-4.403 0-0.512 0.82-0.922 1.843-0.922 2.355 0 4.301-1.946 4.301-4.403 0-1.843 3.686-9.319 5.632-11.469 0.614-0.614 1.74-1.434 2.662-1.74 1.946-0.718 1.946-0.718 7.885 13.516 2.355 5.325 6.042 14.131 8.397 19.456 9.42 21.606 9.318 21.197 8.294 23.757-1.433 3.481-7.475 10.342-18.022 20.275-5.12 4.813-11.06 10.957-13.312 13.722-2.253 2.867-7.066 8.09-10.65 11.776-3.584 3.788-9.728 10.444-13.721 14.95-3.891 4.506-8.909 9.626-10.957 11.264-2.15 1.74-5.632 5.12-7.885 7.68-8.09 9.523-35.942 36.864-37.376 36.864-0.921 0-2.15-0.614-2.765-1.331zM345.19 438.989c-0.614-1.639-1.126-3.482-1.126-4.096 0-0.717-1.331-6.554-3.072-13.005-3.584-13.926-3.584-14.336-1.229-14.336 1.536 0 2.355 1.946 4.403 10.445l2.458 10.445 1.126-4.608c0.512-2.458 1.332-5.223 1.639-6.042 0.41-0.82 2.355-7.987 4.403-15.872s5.018-18.74 6.656-24.064 3.686-12.902 4.608-16.896c0.922-3.891 2.048-7.987 2.56-8.909 0.614-1.024 1.024-2.97 1.024-4.403s0.41-2.56 0.922-2.56c0.41 0 1.433-2.867 2.15-6.451 1.638-7.783 3.482-15.053 5.427-21.197 1.331-4.096 2.15-6.86 4.301-15.053 0.717-2.457 4.608-3.379 4.608-1.024 0 0.615-3.482 13.415-7.68 28.365-4.3 14.95-8.704 30.618-9.83 34.816s-3.175 11.366-4.506 15.872-4.096 14.438-6.144 22.016c-4.915 17.92-7.373 26.829-9.728 33.792l-1.843 5.632-1.127-2.867z m122.47 1.638c-0.306-0.512-1.74-5.222-3.174-10.547s-3.072-11.571-3.686-13.824-3.277-11.469-5.734-20.48c-2.56-9.011-5.94-21.094-7.68-26.726-1.639-5.735-4.096-14.746-5.428-19.968-1.33-5.325-5.017-18.432-8.192-29.184s-5.734-20.07-5.734-20.788c0-0.614 0.82-1.126 1.946-1.126 1.536 0 2.457 2.048 5.12 11.674 1.74 6.348 3.174 12.595 3.174 13.824 0 1.126 0.41 2.15 0.922 2.15 0.614 0 1.33 2.15 1.74 4.915 0.41 2.663 1.024 5.018 1.332 5.325 0.921 0.717 4.198 14.438 4.198 17.715 0 1.434 0.41 2.765 1.024 2.97 0.512 0.205 2.97 7.68 5.53 16.691 7.475 26.931 14.028 50.074 14.643 51.712 0.41 0.922 0.921 0.205 1.433-2.048 0.41-1.946 1.23-5.632 1.844-8.192 0.512-2.56 3.072-12.902 5.53-23.04 2.56-10.138 6.86-27.443 9.522-38.4 2.765-10.957 5.325-20.07 5.735-20.275s0.819-1.639 0.819-3.277c0-4.096 2.253-13.312 3.277-13.312 0.41 0 0.819-1.434 0.819-3.072 0-1.74 0.717-6.144 1.638-9.728 1.639-6.451 1.844-6.656 4.916-6.656 1.945 0 2.662 0.307 1.945 0.82-1.229 0.818-3.686 9.01-7.065 23.244-0.717 3.38-1.844 7.782-2.458 9.728-1.024 3.789-7.68 31.13-15.872 66.048-6.451 27.136-10.65 43.725-11.162 44.237-0.204 0.205-0.614 0.102-0.921-0.41z m144.692-1.843c0-2.458 0.102-2.56 3.277-1.229 4.71 1.946 4.915 3.789 0.41 3.789-3.277 0-3.687-0.307-3.687-2.56z m-8.909-1.229c-0.717-0.205-1.331-1.126-1.331-1.945 0-0.922-1.126-1.434-3.072-1.434-1.638 0-3.072-0.41-3.072-1.024 0-0.512-0.922-1.024-1.946-1.024-1.126 0-2.662-0.717-3.584-1.536-0.819-0.82-1.945-1.536-2.56-1.536s-1.126-0.717-1.126-1.536-0.922-1.536-2.048-1.536-2.048-0.717-2.048-1.536-0.82-1.536-1.843-1.536c-1.843 0-7.373-4.915-7.373-6.554 0-0.512-0.82-1.638-1.946-2.56-5.12-4.505-11.366-22.835-11.366-33.587 0-5.734 2.765-6.144 3.584-0.512 3.891 26.522 15.36 41.472 40.755 53.35 3.789 1.741 6.861 3.585 6.861 4.199 0 1.024-5.632 1.331-7.885 0.307z m124.723-9.625l-4.505-5.018h3.789c2.56 0 3.686 0.41 3.686 1.536 0 0.82 0.717 1.536 1.536 1.536 1.024 0 1.536 1.126 1.536 3.584 0 1.946-0.307 3.584-0.717 3.482-0.512-0.103-2.867-2.356-5.325-5.12z m-16.998-13.517c-9.933-6.144-34.714-15.155-56.32-20.583-23.654-5.939-36.762-13.721-38.298-22.63-0.41-2.253-0.512-4.915-0.307-5.837 0.512-2.765 3.277-2.253 3.277 0.615 0 1.433 0.512 2.867 1.024 3.174 0.614 0.307 1.024 2.662 1.024 5.222 0 4.506 0 4.506 3.584 4.506 1.946 0 3.584 0.41 3.584 0.922 0 0.41 2.048 1.433 4.608 2.15s4.608 1.638 4.608 2.048 1.74 1.126 3.891 1.536c2.048 0.41 4.301 1.126 4.813 1.536 0.614 0.512 5.837 2.048 11.776 3.584 10.342 2.662 28.058 7.987 32.256 9.728 1.126 0.512 4.198 1.638 6.963 2.662 2.663 0.922 4.813 2.356 4.813 3.072 0 0.922 1.229 1.434 3.584 1.434 1.946 0 3.584 0.512 3.584 1.024 0 0.614 0.922 1.024 2.048 1.024s2.048 0.512 2.048 1.024c0 0.614 0.717 1.024 1.536 1.024s1.536 0.512 1.536 1.024c0 0.614 0.717 1.024 1.536 1.024 0.922 0 1.536 0.922 1.536 2.56 0 1.434-0.307 2.56-0.717 2.56-0.512-0.102-3.993-2.048-7.987-4.403z m-636.314-0.922c-0.102-2.15 0.41-3.891 0.922-3.891 1.126 0 1.126 1.434 0 5.12-0.717 2.253-0.82 2.15-0.922-1.229z"
          fill="#2097CD" p-id="8926"></path>
    <path d="M334.438 395.06c-1.536-6.35-4.403-17.92-6.348-25.703s-3.482-14.643-3.482-15.155 0.82-0.922 1.843-0.922c1.536 0 2.765 3.482 7.27 22.22 6.35 25.6 7.271 31.028 5.018 31.028-1.024 0-2.355-3.38-4.3-11.469zM66.97 371.301c-0.308-0.819-0.41-2.56-0.205-3.89 0.307-1.742 0.512-1.332 0.921 1.535 0.512 3.891 0.205 4.813-0.716 2.355z m634.675-4.198c-1.127-1.434-2.56-2.56-3.072-2.56-0.615 0-1.741-0.614-2.458-1.229-0.717-0.717-5.12-3.174-9.728-5.427-4.71-2.15-8.499-4.403-8.499-4.813s-0.82-0.819-1.74-0.819-5.018-1.126-9.114-2.56c-4.608-1.536-11.06-2.867-16.692-3.277-6.553-0.41-9.318-1.024-9.318-1.945 0-3.072 15.155-2.458 27.853 1.228 7.68 2.253 29.184 12.8 34.918 17.204 2.663 2.048 5.12 3.686 5.325 3.686 0.512 0 13.62-19.251 18.432-27.238 1.229-1.844 2.867-4.199 3.789-5.223 0.819-1.024 2.355-3.379 3.277-5.222 1.74-3.38 1.74-3.38-1.127-5.632-10.65-8.5-29.798-19.047-37.171-20.685-1.946-0.41-3.891-1.229-4.3-1.843-0.308-0.615-2.049-1.024-3.79-1.024-1.638 0-2.867-0.307-2.662-0.717 0.205-0.307-3.38-1.229-7.987-1.946-12.39-1.843-17.101-3.276-17.101-4.812 0-1.844 3.174-1.844 14.643 0.102 10.138 1.638 21.197 4.506 22.733 5.734 0.512 0.512 1.638 0.922 2.458 0.922 2.355 0 23.961 11.162 25.907 13.414 0.921 1.024 2.15 1.946 2.765 1.946s1.126 0.512 1.126 1.024c0 0.614 0.614 1.024 1.434 1.024 2.867 0 6.86 4.506 7.475 8.397s-1.229 10.035-2.867 10.035c-0.512 0-0.922 0.512-0.922 1.024 0 1.229-4.198 7.475-5.325 7.987-0.512 0.205-0.819 0.922-0.819 1.639 0 0.614-0.922 1.843-2.048 2.662s-2.048 2.048-2.048 2.765-0.41 1.331-1.024 1.331c-0.512 0-1.024 0.614-1.024 1.434s-0.614 2.15-1.331 2.867-1.843 2.56-2.458 4.198c-0.717 1.536-1.74 2.765-2.355 2.765-0.512 0-1.024 0.717-1.024 1.536 0 0.922-0.922 1.536-2.56 1.536s-2.56 0.614-2.56 1.536c0 2.765-6.656 1.946-9.011-1.024z m-141.517-8.397c0.102-10.24 9.626-35.123 13.414-35.123 1.332 0 1.946-0.717 1.946-2.355 0-3.38 10.24-13.005 13.722-13.005 1.945 0 2.662-0.512 2.662-1.946 0-1.126 0.922-2.355 2.253-2.764 1.229-0.308 3.072-1.434 4.096-2.356 2.15-2.048 13.619-6.246 16.998-6.246 1.229 0 2.253-0.41 2.253-0.82 0-1.023 12.902-3.276 18.944-3.276 3.38 0 4.608 0.41 4.608 1.536 0 1.536-0.717 1.638-14.643 3.686-15.258 2.15-31.642 10.65-43.418 22.63-10.035 10.24-16.691 23.962-19.251 40.04-0.41 2.354-1.126 3.788-2.048 3.788-1.126 0-1.536-1.126-1.536-3.789z m56.73 0.512c1.536-7.577 9.318-13.926 19.353-15.77 3.38-0.614 3.789-0.409 3.789 1.537 0 1.433-0.614 2.15-1.946 2.15-1.024 0-4.608 1.434-7.987 3.174-5.017 2.56-6.349 3.892-8.09 7.68-1.33 2.97-2.56 4.506-3.89 4.506-1.639 0-1.741-0.512-1.23-3.277zM321.74 343.552c-2.765-9.318-2.867-11.776-0.41-11.776 2.048 0 3.891 5.12 4.915 13.722 0.512 4.608 0.41 5.734-0.819 5.734-0.921 0-2.253-2.765-3.686-7.68z m-5.735-23.245c-1.024-3.891-0.716-4.915 1.434-4.915 1.638 0 2.048 0.717 2.048 3.584 0 4.096-2.458 5.018-3.482 1.331z"
          fill="#2097CD" p-id="8927"></path>
    <path d="M313.037 308.224c-2.15-7.782-2.15-8.192 0.307-8.192 1.638 0 2.048 0.717 2.048 3.584 0 1.946 0.512 3.584 1.024 3.584 0.614 0 1.024 1.638 1.024 3.584 0 5.837-2.56 4.403-4.403-2.56z"
          fill="#2097CD" p-id="8928"></path>
    <path d="M223.949 799.437c-0.307-0.82-0.41-18.023-0.103-38.195 0.205-20.276 0.41-149.3 0.41-286.925V224.256l287.54 0.205 287.436 0.307 0.307 287.744 0.205 287.744-287.642 0.307c-249.856 0.307-287.641 0.103-288.153-1.126z m268.595-94.823c0-19.25 0-19.353-2.253-19.66-1.331-0.205-48.742-0.308-105.472-0.103l-103.219 0.205v18.842c0 14.13 0.307 19.046 1.331 19.353 0.615 0.307 48.128 0.615 105.472 0.615l104.141 0.102v-19.354zM680.346 547.84c19.148-4.198 33.587-11.674 44.339-22.733 10.854-11.264 16.281-23.654 18.841-43.52 1.434-10.957 0.103-25.805-3.276-34.509-6.964-18.534-23.143-32.768-47.002-41.472-1.946-0.716-4.506-1.74-5.632-2.15-4.506-1.843-22.118-7.168-32.256-9.728-5.94-1.434-11.162-3.174-11.674-3.686-0.614-0.512-1.638-0.922-2.457-0.922s-2.867-0.614-4.608-1.434c-1.843-0.819-4.915-2.15-6.963-2.97-4.71-1.945-11.162-7.577-11.162-9.83 0-0.921-0.512-2.252-1.126-2.867-0.717-0.717-1.024-3.686-0.717-7.782 0.512-8.807 3.789-13.824 11.264-17.51 11.059-5.428 29.491-5.018 45.465 1.023 9.728 3.687 26.727 12.493 30.72 15.975 1.741 1.536 3.687 2.867 4.301 2.867 1.331 0 6.042-6.042 10.855-14.131 2.15-3.482 4.403-6.963 5.12-7.68 2.355-2.355 11.878-17.408 11.878-18.74s-1.434-2.457-10.547-9.215c-5.632-3.994-26.215-14.746-28.467-14.746-0.82 0-1.946-0.41-2.458-0.922-1.536-1.228-12.595-4.096-22.733-5.734-11.673-1.946-35.43-1.946-45.363-0.102-25.6 4.915-46.285 19.763-55.91 40.038-5.837 12.288-7.578 19.968-7.578 34.304 0 37.478 15.258 55.603 59.085 70.144 7.782 2.662 18.534 5.837 23.859 7.27 5.325 1.332 11.366 3.072 13.312 3.892s7.373 2.97 12.083 4.71c14.234 5.53 19.559 11.469 19.661 21.811 0.102 20.48-24.269 29.082-58.163 20.583-14.234-3.584-32.359-13.108-43.52-22.836-2.048-1.843-4.199-3.174-4.608-2.97-0.512 0.103-3.994 3.994-7.68 8.5s-7.373 8.909-8.09 9.83c-12.185 14.644-15.257 19.047-14.54 20.583 0.614 1.536 11.059 9.728 17.92 14.029 20.787 13.004 33.791 18.124 60.313 23.552 2.56 0.512 12.186 0.921 21.504 1.024 13.312 0 18.842-0.41 26.01-1.946z m-311.808-2.867c0.512-0.922 3.276-10.752 6.246-21.709s6.349-23.45 7.68-27.648c1.229-4.3 3.072-11.162 4.096-15.36 0.922-4.198 2.15-8.602 2.56-9.728 0.512-1.126 1.126-3.174 1.331-4.608 0.307-1.434 1.536-6.246 2.765-10.752s2.867-10.445 3.584-13.312c0.717-2.765 2.458-9.523 3.994-14.848 5.734-20.992 6.45-23.142 7.065-20.992 0.307 1.126 2.458 9.216 4.813 17.92 2.253 8.704 5.734 21.606 7.68 28.672 10.24 37.376 19.558 71.475 22.323 82.227l3.175 11.981h45.568l1.126-4.3a1045.26 1045.26 0 0 0 2.56-9.012c0.82-2.56 3.994-14.234 7.168-26.112 3.277-11.776 8.806-31.846 12.39-44.544 3.482-12.698 8.295-29.696 10.445-37.888 2.253-8.192 7.885-28.467 12.493-45.056 10.957-39.22 13.312-47.923 14.336-52.224 0.512-1.946 1.434-5.427 2.048-7.68s1.536-5.94 2.048-8.192 1.536-6.246 2.355-9.011l1.536-4.813H503.91l-1.536 5.427c-0.921 2.867-5.734 22.426-10.854 43.213-5.12 20.89-10.957 44.34-12.902 52.224-2.048 7.885-4.096 16.384-4.608 18.944a908.413 908.413 0 0 0-2.048 8.704c-0.615 2.253-1.332 5.632-1.741 7.578-0.922 4.71-2.97 5.12-3.789 0.921-0.41-1.843-1.126-4.71-1.638-6.451-0.512-1.638-3.072-10.445-5.632-19.456s-6.759-23.757-9.319-32.768-6.041-21.197-7.577-27.136-3.584-13.005-4.404-15.872c-0.819-2.765-3.174-11.06-5.222-18.432-2.15-7.27-4.096-14.131-4.3-15.155-0.513-1.639-2.151-1.741-20.993-1.536l-20.48 0.307-1.331 4.096c-0.614 2.253-1.843 6.144-2.56 8.704s-1.946 6.656-2.765 9.216c-1.945 6.144-3.789 13.414-5.427 21.3-0.717 3.48-1.74 6.348-2.15 6.348-0.512 0-0.922 1.126-0.922 2.56s-0.41 3.38-1.024 4.403c-0.512 0.922-1.638 5.018-2.56 8.909-0.922 3.994-2.97 11.571-4.608 16.896s-4.608 16.18-6.656 24.064-4.096 15.258-4.608 16.384c-0.41 1.126-1.638 5.325-2.56 9.216-1.024 3.994-2.15 7.885-2.662 8.704-0.717 1.331-0.82 1.331-1.332 0-0.614-1.843-16.896-67.994-20.684-84.48-1.434-6.144-3.482-14.029-4.404-17.408-1.024-3.38-3.584-13.62-5.836-22.733l-3.994-16.691h-28.467c-26.727 0-28.365 0.102-27.443 1.74 0.512 1.025 2.252 6.452 3.686 12.084 1.536 5.632 4.71 17.408 7.168 26.112s6.144 22.118 8.192 29.696c2.15 7.578 6.042 21.811 8.806 31.54 2.765 9.83 5.018 18.534 5.018 19.455s1.331 5.94 2.97 10.957c1.638 5.12 3.686 12.493 4.71 16.384 3.174 12.902 9.933 37.683 14.029 51.712 2.253 7.578 4.71 16.384 5.427 19.456 3.38 14.643 8.09 28.57 9.626 28.98 0.921 0.306 10.956 0.511 22.323 0.614 18.841 0.102 20.787-0.103 21.709-1.741z"
          fill="#212222" p-id="8929"></path>
</svg>
